<?xml version="1.0" encoding="UTF-8"?>
<svg width="20" height="20" viewBox="0 0 20 20" fill="none" xmlns="http://www.w3.org/2000/svg">
  <path d="M10 1.80723C12.6506 1.80723 12.9928 1.80723 14.0361 1.80723C15.0793 1.80723 15.6506 2.04819 15.9639 2.2129C16.4458 2.45783 16.8072 2.77108 17.1506 3.11446C17.494 3.45783 17.8072 3.81928 18.0522 4.30121C18.2169 4.61446 18.4578 5.18573 18.4578 6.22892C18.4578 7.27211 18.4578 7.61446 18.4578 10.2651C18.4578 12.9157 18.4578 13.2581 18.4578 14.3013C18.4578 15.3446 18.2169 15.9157 18.0522 16.229C17.8072 16.7108 17.494 17.0723 17.1506 17.4157C16.8072 17.7591 16.4458 18.0723 15.9639 18.3173C15.6506 18.482 15.0793 18.723 14.0361 18.723C12.9928 18.723 12.6506 18.723 10 18.723C7.34939 18.723 7.00723 18.723 5.96386 18.723C4.92048 18.723 4.34939 18.482 4.03614 18.3173C3.55422 18.0723 3.19277 17.7591 2.84939 17.4157C2.50602 17.0723 2.19277 16.7108 1.9477 16.229C1.78313 15.9157 1.54217 15.3446 1.54217 14.3013C1.54217 13.2581 1.54217 12.9157 1.54217 10.2651C1.54217 7.61446 1.54217 7.27211 1.54217 6.22892C1.54217 5.18573 1.78313 4.61446 1.9477 4.30121C2.19277 3.81928 2.50602 3.45783 2.84939 3.11446C3.19277 2.77108 3.55422 2.45783 4.03614 2.2129C4.34939 2.04819 4.92048 1.80723 5.96386 1.80723C7.00723 1.80723 7.34939 1.80723 10 1.80723ZM10 0C7.29518 0 6.94699 0 5.90361 0C4.86024 0 4.11647 0.241 3.49398 0.44579C2.83133 0.68675 2.25904 1 1.71687 1.54217C1.17469 2.08434 0.861446 2.65663 0.620482 3.31928C0.41566 3.94177 0.174699 4.68554 0.174699 5.72892C0.174699 6.7723 0.174699 7.12048 0.174699 9.82532C0.174699 12.5301 0.174699 12.8783 0.174699 13.9217C0.174699 14.9651 0.41566 15.7088 0.620482 16.3313C0.861446 16.994 1.17469 17.5663 1.71687 18.1084C2.25904 18.6506 2.83133 18.9639 3.49398 19.2048C4.11647 19.4096 4.86024 19.6506 5.90361 19.6506C6.94699 19.6506 7.29518 19.6506 10 19.6506C12.7048 19.6506 13.053 19.6506 14.0964 19.6506C15.1398 19.6506 15.8835 19.4096 16.506 19.2048C17.1687 18.9639 17.741 18.6506 18.2831 18.1084C18.8253 17.5663 19.1385 16.994 19.3795 16.3313C19.5843 15.7088 19.8253 14.9651 19.8253 13.9217C19.8253 12.8783 19.8253 12.5301 19.8253 9.82532C19.8253 7.12048 19.8253 6.7723 19.8253 5.72892C19.8253 4.68554 19.5843 3.94177 19.3795 3.31928C19.1385 2.65663 18.8253 2.08434 18.2831 1.54217C17.741 1 17.1687 0.68675 16.506 0.44579C15.8835 0.241 15.1398 0 14.0964 0C13.053 0 12.7048 0 10 0Z" fill="white"/>
  <path d="M10 4.7952C7.09639 4.7952 4.82532 7.06627 4.82532 9.96987C4.82532 12.8735 7.09639 15.1446 10 15.1446C12.9036 15.1446 15.1747 12.8735 15.1747 9.96987C15.1747 7.06627 12.9036 4.7952 10 4.7952ZM10 13.3855C8.07831 13.3855 6.58434 11.8916 6.58434 9.96987C6.58434 8.04819 8.07831 6.55422 10 6.55422C11.9217 6.55422 13.4157 8.04819 13.4157 9.96987C13.4157 11.8916 11.9217 13.3855 10 13.3855Z" fill="white"/>
  <path d="M15.3373 5.78313C16.0235 5.78313 16.5783 5.22831 16.5783 4.54217C16.5783 3.85602 16.0235 3.30121 15.3373 3.30121C14.6512 3.30121 14.0964 3.85602 14.0964 4.54217C14.0964 5.22831 14.6512 5.78313 15.3373 5.78313Z" fill="white"/>
</svg>