<?xml version="1.0" encoding="UTF-8"?>
<svg width="120" height="40" viewBox="0 0 120 40" fill="none" xmlns="http://www.w3.org/2000/svg">
  <path d="M10 8H110C115.523 8 120 12.4772 120 18V30C120 35.5228 115.523 40 110 40H10C4.47715 40 0 35.5228 0 30V18C0 12.4772 4.47715 8 10 8Z" fill="#668C4A"/>
  <path d="M16.488 31V15.592H22.2C23.304 15.592 24.24 15.784 25.008 16.168C25.776 16.536 26.352 17.056 26.736 17.728C27.136 18.4 27.336 19.176 27.336 20.056C27.336 20.936 27.136 21.712 26.736 22.384C26.352 23.056 25.776 23.584 25.008 23.968C24.24 24.336 23.304 24.52 22.2 24.52H18.96V31H16.488ZM18.96 22.48H22.056C22.968 22.48 23.664 22.256 24.144 21.808C24.624 21.36 24.864 20.776 24.864 20.056C24.864 19.336 24.624 18.752 24.144 18.304C23.664 17.856 22.968 17.632 22.056 17.632H18.96V22.48ZM31.7105 31.288C30.8465 31.288 30.0785 31.104 29.4065 30.736C28.7505 30.368 28.2305 29.848 27.8465 29.176C27.4625 28.504 27.2705 27.704 27.2705 26.776C27.2705 25.848 27.4625 25.048 27.8465 24.376C28.2305 23.704 28.7505 23.184 29.4065 22.816C30.0785 22.448 30.8465 22.264 31.7105 22.264C32.5745 22.264 33.3345 22.448 33.9905 22.816C34.6625 23.184 35.1825 23.704 35.5505 24.376C35.9345 25.048 36.1265 25.848 36.1265 26.776C36.1265 27.704 35.9345 28.504 35.5505 29.176C35.1825 29.848 34.6625 30.368 33.9905 30.736C33.3345 31.104 32.5745 31.288 31.7105 31.288ZM31.7105 29.248C32.3985 29.248 32.9425 29.024 33.3425 28.576C33.7425 28.128 33.9425 27.528 33.9425 26.776C33.9425 26.024 33.7425 25.424 33.3425 24.976C32.9425 24.528 32.3985 24.304 31.7105 24.304C31.0225 24.304 30.4785 24.528 30.0785 24.976C29.6785 25.424 29.4785 26.024 29.4785 26.776C29.4785 27.528 29.6785 28.128 30.0785 28.576C30.4785 29.024 31.0225 29.248 31.7105 29.248ZM38.467 31V19.192H40.603V31H38.467ZM39.539 17.536C39.123 17.536 38.779 17.408 38.507 17.152C38.235 16.88 38.099 16.552 38.099 16.168C38.099 15.784 38.235 15.464 38.507 15.208C38.779 14.936 39.123 14.8 39.539 14.8C39.955 14.8 40.299 14.928 40.571 15.184C40.843 15.44 40.979 15.76 40.979 16.144C40.979 16.544 40.843 16.88 40.571 17.152C40.315 17.408 39.971 17.536 39.539 17.536ZM47.1211 31.288C46.2571 31.288 45.4891 31.104 44.8171 30.736C44.1611 30.368 43.6411 29.848 43.2571 29.176C42.8731 28.504 42.6811 27.704 42.6811 26.776C42.6811 25.848 42.8731 25.048 43.2571 24.376C43.6411 23.704 44.1611 23.184 44.8171 22.816C45.4891 22.448 46.2571 22.264 47.1211 22.264C47.9851 22.264 48.7451 22.448 49.4011 22.816C50.0731 23.184 50.5931 23.704 50.9611 24.376C51.3451 25.048 51.5371 25.848 51.5371 26.776C51.5371 27.704 51.3451 28.504 50.9611 29.176C50.5931 29.848 50.0731 30.368 49.4011 30.736C48.7451 31.104 47.9851 31.288 47.1211 31.288ZM47.1211 29.248C47.8091 29.248 48.3531 29.024 48.7531 28.576C49.1531 28.128 49.3531 27.528 49.3531 26.776C49.3531 26.024 49.1531 25.424 48.7531 24.976C48.3531 24.528 47.8091 24.304 47.1211 24.304C46.4331 24.304 45.8891 24.528 45.4891 24.976C45.0891 25.424 44.8891 26.024 44.8891 26.776C44.8891 27.528 45.0891 28.128 45.4891 28.576C45.8891 29.024 46.4331 29.248 47.1211 29.248ZM61.9615 22.552L58.0975 31H55.8815L52.0415 22.552H54.3295L57.0175 28.6L59.7295 22.552H61.9615ZM67.7547 31.288C66.8907 31.288 66.1227 31.104 65.4507 30.736C64.7947 30.368 64.2747 29.848 63.8907 29.176C63.5067 28.504 63.3147 27.704 63.3147 26.776C63.3147 25.848 63.5067 25.048 63.8907 24.376C64.2747 23.704 64.7947 23.184 65.4507 22.816C66.1227 22.448 66.8907 22.264 67.7547 22.264C68.6187 22.264 69.3787 22.448 70.0347 22.816C70.7067 23.184 71.2267 23.704 71.5947 24.376C71.9787 25.048 72.1707 25.848 72.1707 26.776C72.1707 27.704 71.9787 28.504 71.5947 29.176C71.2267 29.848 70.7067 30.368 70.0347 30.736C69.3787 31.104 68.6187 31.288 67.7547 31.288ZM67.7547 29.248C68.4427 29.248 68.9867 29.024 69.3867 28.576C69.7867 28.128 69.9867 27.528 69.9867 26.776C69.9867 26.024 69.7867 25.424 69.3867 24.976C68.9867 24.528 68.4427 24.304 67.7547 24.304C67.0667 24.304 66.5227 24.528 66.1227 24.976C65.7227 25.424 65.5227 26.024 65.5227 26.776C65.5227 27.528 65.7227 28.128 66.1227 28.576C66.5227 29.024 67.0667 29.248 67.7547 29.248ZM74.5111 31V19.192H76.6471V31H74.5111ZM75.5831 17.536C75.1671 17.536 74.8231 17.408 74.5511 17.152C74.2791 16.88 74.1431 16.552 74.1431 16.168C74.1431 15.784 74.2791 15.464 74.5511 15.208C74.8231 14.936 75.1671 14.8 75.5831 14.8C75.9991 14.8 76.3431 14.928 76.6151 15.184C76.8871 15.44 77.0231 15.76 77.0231 16.144C77.0231 16.544 76.8871 16.88 76.6151 17.152C76.3591 17.408 76.0151 17.536 75.5831 17.536ZM83.1652 31.288C82.3012 31.288 81.5332 31.104 80.8612 30.736C80.2052 30.368 79.6852 29.848 79.3012 29.176C78.9172 28.504 78.7252 27.704 78.7252 26.776C78.7252 25.848 78.9172 25.048 79.3012 24.376C79.6852 23.704 80.2052 23.184 80.8612 22.816C81.5332 22.448 82.3012 22.264 83.1652 22.264C84.0292 22.264 84.7892 22.448 85.4452 22.816C86.1172 23.184 86.6372 23.704 87.0052 24.376C87.3892 25.048 87.5812 25.848 87.5812 26.776C87.5812 27.704 87.3892 28.504 87.0052 29.176C86.6372 29.848 86.1172 30.368 85.4452 30.736C84.7892 31.104 84.0292 31.288 83.1652 31.288ZM83.1652 29.248C83.8532 29.248 84.3972 29.024 84.7972 28.576C85.1972 28.128 85.3972 27.528 85.3972 26.776C85.3972 26.024 85.1972 25.424 84.7972 24.976C84.3972 24.528 83.8532 24.304 83.1652 24.304C82.4772 24.304 81.9332 24.528 81.5332 24.976C81.1332 25.424 80.9332 26.024 80.9332 26.776C80.9332 27.528 81.1332 28.128 81.5332 28.576C81.9332 29.024 82.4772 29.248 83.1652 29.248ZM94.5292 31.288C93.5692 31.288 92.7372 31.112 92.0332 30.76C91.3452 30.392 90.8092 29.88 90.4252 29.224C90.0572 28.552 89.8732 27.752 89.8732 26.824C89.8732 25.896 90.0572 25.096 90.4252 24.424C90.7932 23.752 91.3132 23.232 91.9852 22.864C92.6572 22.496 93.4332 22.312 94.3132 22.312C95.1772 22.312 95.9292 22.488 96.5692 22.84C97.2252 23.192 97.7372 23.7 98.1052 24.36C98.4732 25.02 98.6572 25.8 98.6572 26.696C98.6572 26.792 98.6572 26.896 98.6572 27.008C98.6572 27.104 98.6492 27.208 98.6332 27.32H92.0572C92.1052 27.992 92.3452 28.504 92.7772 28.856C93.2092 29.208 93.7372 29.384 94.3612 29.384C94.8252 29.384 95.2092 29.296 95.5132 29.12C95.8332 28.928 96.0812 28.672 96.2572 28.352H98.4972C98.2412 29.152 97.7532 29.824 97.0332 30.368C96.3132 30.896 95.5052 31.16 94.5132 31.16L94.5292 31.288ZM94.3132 24.184C93.7532 24.184 93.2652 24.336 92.8492 24.64C92.4332 24.944 92.1772 25.408 92.0812 26.032H96.3612C96.3132 25.456 96.0892 25 95.6892 24.664C95.2892 24.328 94.8092 24.16 94.2492 24.16L94.3132 24.184ZM105.61 22.504L101.962 26.752L105.778 31H103.13L99.3137 26.752L103.081 22.504H105.61ZM107.093 31V15.592H109.229V31H107.093Z" fill="white"/>
</svg>