<?xml version="1.0" encoding="UTF-8"?>
<svg width="20" height="20" viewBox="0 0 20 20" fill="none" xmlns="http://www.w3.org/2000/svg">
  <path d="M19.5832 5.0332C19.3555 4.1582 18.6707 3.4734 17.7957 3.2457C16.2582 2.8332 10.0001 2.8332 10.0001 2.8332C10.0001 2.8332 3.74175 2.8332 2.20425 3.2457C1.32925 3.4734 0.644502 4.1582 0.416752 5.0332C0.00341797 6.5707 0.00341797 9.8957 0.00341797 9.8957C0.00341797 9.8957 0.00341797 13.2207 0.416752 14.7582C0.644502 15.6332 1.32925 16.2832 2.20425 16.5107C3.74175 16.9232 10.0001 16.9232 10.0001 16.9232C10.0001 16.9232 16.2582 16.9232 17.7957 16.5107C18.6707 16.2832 19.3555 15.6332 19.5832 14.7582C19.9967 13.2207 19.9967 9.8957 19.9967 9.8957C19.9967 9.8957 19.9967 6.5707 19.5832 5.0332ZM8.0001 12.8957V6.8957L13.1251 9.8957L8.0001 12.8957Z" fill="white"/>
</svg>